<?xml version="1.0" encoding="iso-8859-1"?>
<!-- Generator: Adobe Illustrator 16.0.0, SVG Export Plug-In . SVG Version: 6.00 Build 0)  -->
<!DOCTYPE svg PUBLIC "-//W3C//DTD SVG 1.1//EN" "http://www.w3.org/Graphics/SVG/1.1/DTD/svg11.dtd">
<svg version="1.1" id="Capa_1" xmlns="http://www.w3.org/2000/svg" xmlns:xlink="http://www.w3.org/1999/xlink" x="0px" y="0px"
	 width="361.647px" height="361.648px" viewBox="0 0 361.647 361.648" style="enable-background:new 0 0 361.647 361.648;"
	 xml:space="preserve">
<g>
	<g>
		<path d="M361.647,68.588H0v224.471h361.647V68.588z M349.177,280.588H12.471V81.059h336.706V280.588z"/>
		<rect x="174.588" y="118.471" width="12.47" height="130.941"/>
		<path d="M218.235,174.588H318c3.44,0,6.235-2.795,6.235-6.235s-2.795-6.235-6.235-6.235h-99.765c-3.44,0-6.235,2.795-6.235,6.235
			S214.795,174.588,218.235,174.588z"/>
		<path d="M218.235,205.765H318c3.44,0,6.235-2.795,6.235-6.235s-2.795-6.235-6.235-6.235h-99.765c-3.44,0-6.235,2.795-6.235,6.235
			S214.795,205.765,218.235,205.765z"/>
		<path d="M218.235,236.941H318c3.44,0,6.235-2.795,6.235-6.234c0-3.441-2.795-6.236-6.235-6.236h-99.765
			c-3.44,0-6.235,2.795-6.235,6.236C212,234.146,214.795,236.941,218.235,236.941z"/>
		<rect x="286.824" y="93.53" width="37.411" height="43.646"/>
	</g>
</g>
<g>
</g>
<g>
</g>
<g>
</g>
<g>
</g>
<g>
</g>
<g>
</g>
<g>
</g>
<g>
</g>
<g>
</g>
<g>
</g>
<g>
</g>
<g>
</g>
<g>
</g>
<g>
</g>
<g>
</g>
</svg>
